:SAMPLES-PER-SECOND 30
:FRAME-RANGE 1-2091
:FULLY-SPECIFIED
:DEGREES
1177
root  -40.4898 38.5004 23.9029 179.241 65.4133 174.805
RightUpLeg  9.3365 -7.02154 -10.5437
RightLeg  25.4287 -1.35967 -0.925699
RightFoot  -13.112 0.264777 22.6704
RightToes  5.38607e-012 1.2921e-014 -6.02303e-014
Spine  -4.3564 3.15175 5.71345
Spine1  8.74518 4.69793 -7.73783
HEad  11.5444 -18.6431 -0.959691
LeftShoulder1  1.10213 -0.925184 -19.8234
LeftArm  -5.03227 11.5683 -47.5343
LeftForeArm  38.7777 7.68708 -12.4677
LeftHand  -0.0127289 5.87051 2.98207
RightShoulder  2.77806 6.36569 22.5969
RightArm  0.562443 41.3273 70.5933
RightForeArm  7.01236 29.2907 5.98205
RightHand  -0.170407 -4.37169 -18.2508
LeftUpLeg  -23.5298 -2.38041 -5.80523
LeftLeg  7.21152 25.5281 3.95551
LeftFoot  4.82903 -0.053827 0.17253
LeftToes  -7.20997e-011 3.75522e-011 -2.80735e-011
1178
root  -39.4534 38.7008 22.994 179.158 63.7444 174.709
RightUpLeg  4.72953 -5.89171 -11.1985
RightLeg  36.5836 -1.43291 -1.3998
RightFoot  -6.06565 -1.03628 21.3556
RightToes  5.38607e-012 1.2921e-014 -6.02303e-014
Spine  -4.72759 2.76333 4.97397
Spine1  8.33151 4.17626 -7.80319
HEad  12.6333 -21.897 -1.75657
LeftShoulder1  1.15804 -1.13362 -19.8634
LeftArm  -5.87064 11.5776 -48.1151
LeftForeArm  38.5137 7.6463 -12.1693
LeftHand  -0.0174517 5.8745 2.6075
RightShoulder  2.56545 5.96485 21.4697
RightArm  -9.50342 38.6303 71.6856
RightForeArm  16.9903 24.8711 4.42969
RightHand  -0.227032 -4.01654 -18.3763
LeftUpLeg  -21.6147 -2.4023 -7.00923
LeftLeg  7.61681 23.4577 3.37568
LeftFoot  3.66851 -0.278183 1.94273
LeftToes  -7.20997e-011 3.75522e-011 -2.80735e-011
1179
root  -38.4276 38.8991 22.1032 179.524 61.8929 175.311
RightUpLeg  -1.14545 -5.4749 -11.0211
RightLeg  48.2285 -2.30593 -3.09839
RightFoot  3.09668 -1.50402 12.0015
RightToes  5.38607e-012 1.2921e-014 -6.02303e-014
Spine  -5.33359 1.92142 3.62861
Spine1  8.30356 3.02504 -6.66101
HEad  13.5332 -25.2332 -3.07756
LeftShoulder1  1.1851 -1.22693 -19.9283
LeftArm  -5.9573 11.6755 -48.7707
LeftForeArm  38.3622 7.62334 -12.0016
LeftHand  -0.0199143 5.69819 2.15917
RightShoulder  2.4158 5.44231 21.4005
RightArm  -11.2432 35.8673 69.8203
RightForeArm  17.8493 21.5214 4.07506
RightHand  -0.251054 -3.90337 -18.8866
LeftUpLeg  -19.123 -2.97785 -8.1025
LeftLeg  7.24278 21.8829 3.45964
LeftFoot  3.26518 -0.503131 3.77001
LeftToes  -7.20997e-011 3.75522e-011 -2.80735e-011
1180
root  -37.4815 38.8804 21.3653 178.396 59.5713 174.537
RightUpLeg  -5.62 -3.63105 -11.1172
RightLeg  56.9347 -1.16659 -2.36876
RightFoot  3.41902 -1.169 9.18784
RightToes  5.38607e-012 1.2921e-014 -6.02303e-014
Spine  -5.2405 0.766055 0.24796
Spine1  8.49977 1.34676 -4.99164
HEad  13.9752 -29.2258 -4.25
LeftShoulder1  1.21767 -1.32239 -20.1053
LeftArm  -4.64217 11.3204 -49.1354
LeftForeArm  37.5457 7.68633 -12.3076
LeftHand  -0.0163968 5.76251 2.72554
RightShoulder  2.24892 4.5122 22.6135
RightArm  -14.4827 33.2666 67.1542
RightForeArm  22.6262 15.8437 5.11361
RightHand  -0.368759 -3.27461 -19.7999
LeftUpLeg  -17.66 -3.07938 -9.61099
LeftLeg  9.61616 19.6032 3.92204
LeftFoot  0.837726 -0.462322 4.28417
LeftToes  -7.20997e-011 3.75522e-011 -2.80735e-011
1181
root  -36.5238 38.8164 20.6387 177.279 57.1613 173.741
RightUpLeg  -9.40039 -1.7774 -11.4418
RightLeg  62.523 0.0770679 -0.378577
RightFoot  -0.119021 -1.04216 10.5709
RightToes  5.38607e-012 1.2921e-014 -6.02303e-014
Spine  -4.93273 -0.0206174 -2.23372
Spine1  8.66965 0.265716 -4.44342
HEad  14.5972 -33.6876 -4.65126
LeftShoulder1  1.32391 -1.68659 -20.3308
LeftArm  -3.56189 10.1058 -49.5011
LeftForeArm  38.2803 6.21408 -12.6388
LeftHand  -0.0147812 5.88583 3.19272
RightShoulder  2.09224 3.66937 23.9011
RightArm  -20.0959 30.422 63.414
RightForeArm  28.3521 7.63044 5.00977
RightHand  -0.529239 -2.49519 -20.944
LeftUpLeg  -16.1978 -3.03395 -10.9801
LeftLeg  12.0536 17.1268 4.18384
LeftFoot  -2.03176 -0.342658 4.3574
LeftToes  -7.20997e-011 3.75522e-011 -2.80735e-011
1182
root  -35.5824 38.8843 19.788 177.957 55.2096 174.687
RightUpLeg  -13.5865 1.54428 -10.4421
RightLeg  64.7247 0.248095 -0.0207381
RightFoot  -0.13715 -0.717992 7.30016
RightToes  5.38607e-012 1.2921e-014 -6.02303e-014
Spine  -5.15926 -0.833998 -2.17887
Spine1  8.72006 -0.321282 -5.45581
HEad  15.2773 -38.0244 -4.39724
LeftShoulder1  1.2904 -1.68112 -19.6409
LeftArm  -3.04987 8.8839 -50.2885
LeftForeArm  39.1088 3.99355 -12.6717
LeftHand  -0.00993151 5.92423 3.88421
RightShoulder  2.04886 3.08015 26.0845
RightArm  -22.5768 27.4343 59.7555
RightForeArm  31.2947 -1.8034 2.74099
RightHand  -0.705046 -1.7642 -22.3536
LeftUpLeg  -14.2309 -2.9686 -11.481
LeftLeg  12.9295 15.3233 4.36112
LeftFoot  -4.43849 -0.230142 4.25817
LeftToes  -7.20997e-011 3.75522e-011 -2.80735e-011
1183
root  -34.5926 38.8485 19.0541 178.304 53.0148 175.244
RightUpLeg  -17.5661 3.83796 -9.83832
RightLeg  65.0721 -0.262477 -1.22345
RightFoot  -0.693236 -0.636463 6.77045
RightToes  5.38607e-012 1.2921e-014 -6.02303e-014
Spine  -4.91794 -1.31437 -3.65692
Spine1  8.78295 -0.98713 -4.83172
HEad  15.3863 -42.282 -4.29697
LeftShoulder1  1.30776 -1.67834 -20.0303
LeftArm  -2.20985 7.21699 -50.6224
LeftForeArm  38.9499 1.11247 -12.7326
LeftHand  -0.0268353 5.33708 3.6982
RightShoulder  1.9043 2.4413 27.1631
RightArm  -26.7794 21.7239 56
RightForeArm  35.8256 -5.80306 0.621481
RightHand  -0.776268 -1.60239 -23.5564
LeftUpLeg  -13.0473 -2.19542 -11.492
LeftLeg  15.406 11.8821 3.9101
LeftFoot  -7.32612 -0.098477 4.06678
LeftToes  -7.20997e-011 3.75522e-011 -2.80735e-011
1184
root  -33.5691 38.7635 18.3054 178.789 50.1599 176.367
RightUpLeg  -20.4939 5.19274 -8.6989
RightLeg  63.1686 -1.84406 -4.51985
RightFoot  -3.86886 -0.378589 5.38884
RightToes  5.38607e-012 1.2921e-014 -6.02303e-014
Spine  -3.86579 -2.00866 -5.10495
Spine1  8.24316 -2.09715 -3.29859
HEad  15.3044 -46.0265 -4.0118
LeftShoulder1  1.30906 -1.559 -20.7477
LeftArm  0.21662 6.02611 -50.74
LeftForeArm  36.7398 -2.7384 -12.795
LeftHand  -0.048726 4.58483 3.9703
RightShoulder  1.75605 1.86034 28.0333
RightArm  -31.032 14.8431 51.9043
RightForeArm  40.5721 -5.43033 -1.02444
RightHand  -0.879259 -1.37005 -25.1228
LeftUpLeg  -11.0983 -1.10189 -11.1616
LeftLeg  17.1291 8.70965 3.20087
LeftFoot  -10.4939 0.0269787 4.88858
LeftToes  -7.20997e-011 3.75522e-011 -2.80735e-011
1185
root  -32.5715 38.7787 17.4593 179.576 47.2165 177.345
RightUpLeg  -23.3525 5.50418 -7.73344
RightLeg  59.0569 -4.44418 -8.41732
RightFoot  -6.02619 -0.243266 4.35465
RightToes  5.38607e-012 1.2921e-014 -6.02303e-014
Spine  -4.18967 -2.89023 -5.74075
Spine1  8.99283 -3.0833 -2.28794
HEad  14.3603 -49.5215 -3.22573
LeftShoulder1  1.41664 -1.94865 -20.8054
LeftArm  3.4041 5.23695 -51.3907
LeftForeArm  32.4784 -7.19454 -12.0772
LeftHand  -0.0686573 3.99258 4.20162
RightShoulder  1.4887 0.898463 29.4569
RightArm  -36.1039 9.09953 47.3348
RightForeArm  46.3259 -4.79663 -3.91306
RightHand  -1.13555 -0.392127 -26.1115
LeftUpLeg  -8.87159 -0.62739 -10.7533
LeftLeg  17.4337 5.68343 2.52062
LeftFoot  -12.5192 0.131797 5.4902
LeftToes  -7.20997e-011 3.75522e-011 -2.80735e-011
1186
root  -31.5864 38.8196 16.5539 -179.71 44.33 178.259
RightUpLeg  -25.4302 4.9501 -6.76068
RightLeg  52.7453 -7.286 -10.5142
RightFoot  -6.44861 -0.207995 3.83976
RightToes  5.38607e-012 1.2921e-014 -6.02303e-014
Spine  -4.16859 -3.78563 -6.30888
Spine1  9.3067 -4.21377 -0.595745
HEad  12.7479 -52.0378 -2.2854
LeftShoulder1  1.52093 -2.35632 -20.7013
LeftArm  8.38434 4.96741 -52.1898
LeftForeArm  27.0597 -11.6692 -10.6083
LeftHand  -0.086998 3.67996 4.81666
RightShoulder  1.17318 -0.0560233 30.1115
RightArm  -39.9824 2.75124 43.0431
RightForeArm  49.9379 -4.28924 -6.25773
RightHand  -0.498422 -3.33776 -27.7157
LeftUpLeg  -6.20178 -0.219061 -10.1171
LeftLeg  16.8805 2.67519 1.74947
LeftFoot  -14.1669 0.22731 5.75641
LeftToes  -7.20997e-011 3.75522e-011 -2.80735e-011
1187
root  -30.623 38.802 15.6195 -179.132 41.9217 178.827
RightUpLeg  -27.0226 3.72096 -6.02761
RightLeg  44.3797 -8.34917 -8.93775
RightFoot  -6.03549 -0.226528 4.00034
RightToes  5.38607e-012 1.2921e-014 -6.02303e-014
Spine  -4.05229 -4.59764 -6.53989
Spine1  9.40596 -5.17158 0.686101
HEad  10.629 -53.6829 -1.18814
LeftShoulder1  1.56013 -2.54304 -20.5017
LeftArm  13.2205 4.83308 -52.8222
LeftForeArm  23.1011 -15.4768 -8.56972
LeftHand  -0.0917838 3.57587 4.882
RightShoulder  0.983015 -0.580074 30.0308
RightArm  -39.6008 -4.56035 38.276
RightForeArm  51.9487 -4.30746 -5.83973
RightHand  -0.280221 -4.26657 -28.3544
LeftUpLeg  -3.80075 0.239009 -9.4666
LeftLeg  16.4812 0.135847 1.03476
LeftFoot  -15.6826 0.341062 6.50173
LeftToes  -7.20997e-011 3.75522e-011 -2.80735e-011
